<svg xmlns="http://www.w3.org/2000/svg" width="240" height="240" viewBox="0 0 240 240">
<rect width="240" height="240" rx="120" fill="#eaf4ff"/>
<circle cx="120" cy="88" r="34" fill="#ffd8b8"/>
<path d="M87 86c0-18 15-35 33-35 17 0 32 12 35 31-9-8-19-12-34-12-12 0-24 5-34 16z" fill="#343434"/>
<rect x="81" y="124" width="78" height="68" rx="16" fill="#224f9c"/>
<rect x="112" y="124" width="16" height="68" fill="#163975"/>
<polygon points="120,132 109,152 131,152" fill="#ffffff"/>
<rect x="68" y="150" width="38" height="12" rx="6" fill="#224f9c" transform="rotate(-12 68 150)"/>
<rect x="134" y="146" width="42" height="12" rx="6" fill="#224f9c" transform="rotate(10 134 146)"/>
<rect x="146" y="138" width="34" height="44" rx="6" fill="#ffffff" stroke="#7fa5de" stroke-width="3"/>
<line x1="153" y1="150" x2="173" y2="150" stroke="#7fa5de" stroke-width="3"/>
<line x1="153" y1="160" x2="173" y2="160" stroke="#7fa5de" stroke-width="3"/>
<line x1="153" y1="170" x2="168" y2="170" stroke="#7fa5de" stroke-width="3"/>
<circle cx="103" cy="85" r="4" fill="#2c2c2c"/><circle cx="136" cy="85" r="4" fill="#2c2c2c"/>
<path d="M107 102c7 9 19 9 26 0" fill="none" stroke="#d97d70" stroke-width="4" stroke-linecap="round"/>
</svg>